<?xml version="1.0" encoding="UTF-8"?><svg id="Layer_1" xmlns="http://www.w3.org/2000/svg" viewBox="0 0 100 100"><defs><style>.cls-1{fill:#b4fab7;stroke-miterlimit:10;}.cls-1,.cls-2,.cls-3,.cls-4{stroke:#000;stroke-width:.58px;}.cls-2,.cls-3,.cls-4{stroke-linejoin:round;}.cls-2,.cls-5{fill:#fff;}.cls-3{stroke-linecap:round;}.cls-3,.cls-4{fill:none;}.cls-5{stroke-width:0px;}</style></defs><polygon class="cls-5" points="21.32 58.12 60.47 48.86 61.35 52.98 42.85 69.77 21.98 60.64 21.32 58.12"/><polygon class="cls-2" points="21.02 58.93 21.02 78.43 56.43 94.38 56.43 75.12 42.07 62.06 42.08 68.31 21.02 58.93"/><polyline class="cls-2" points="21.02 58.93 46.54 43.13 61.35 49.76"/><polygon class="cls-2" points="42.07 62.06 67.88 45.59 82.35 58.58 82.35 77.98 56.43 94.38 56.43 75.12 42.07 62.06"/><polygon class="cls-1" points="76.92 81.31 76.92 61.7 62.75 48.86 47.83 58.39 62.21 71.42 62.21 90.72 76.92 81.31"/><path class="cls-2" d="m42.07,35.83v11.96s1.34,1.28,4.2,1.28,4.33-1.47,4.33-1.47v-11.77"/><ellipse class="cls-1" cx="46.33" cy="35.83" rx="4.27" ry="1.02"/><path class="cls-4" d="m50.6,37.39c0,.56-1.91,1.02-4.27,1.02s-4.27-.46-4.27-1.02"/><path class="cls-1" d="m58.18,86.72l1.79-1.13c.36-.22.82.03.82.45v2.73c0,.18-.09.35-.25.45l-1.79,1.15c-.36.23-.82-.03-.82-.45v-2.76c0-.18.09-.35.25-.45Z"/><path class="cls-1" d="m58.18,80.68l1.79-1.13c.36-.22.82.03.82.45v2.73c0,.18-.09.35-.25.45l-1.79,1.15c-.36.23-.82-.03-.82-.45v-2.76c0-.18.09-.35.25-.45Z"/><path class="cls-1" d="m58.18,74.65l1.79-1.13c.36-.22.82.03.82.45v2.73c0,.18-.09.35-.25.45l-1.79,1.15c-.36.23-.82-.03-.82-.45v-2.76c0-.18.09-.35.25-.45Z"/><path class="cls-1" d="m78.58,73.91l1.79-1.13c.36-.22.82.03.82.45v2.73c0,.18-.09.35-.25.45l-1.79,1.15c-.36.23-.82-.03-.82-.45v-2.76c0-.18.09-.35.25-.45Z"/><path class="cls-1" d="m78.58,67.88l1.79-1.13c.36-.22.82.03.82.45v2.73c0,.18-.09.35-.25.45l-1.79,1.15c-.36.23-.82-.03-.82-.45v-2.76c0-.18.09-.35.25-.45Z"/><path class="cls-1" d="m78.58,61.85l1.79-1.13c.36-.22.82.03.82.45v2.73c0,.18-.09.35-.25.45l-1.79,1.15c-.36.23-.82-.03-.82-.45v-2.76c0-.18.09-.35.25-.45Z"/><path class="cls-1" d="m54.6,70.77l1.94,1.83c.2.19.5.22.73.07l1.7-1.08c.33-.21.37-.69.08-.95l-2.02-1.8c-.2-.18-.5-.2-.72-.05l-1.61,1.05c-.32.21-.36.67-.08.93Z"/><path class="cls-1" d="m50.23,66.81l1.94,1.83c.2.19.5.22.73.07l1.7-1.08c.33-.21.37-.69.08-.95l-2.02-1.8c-.2-.18-.5-.2-.72-.05l-1.61,1.05c-.32.21-.36.67-.08.93Z"/><path class="cls-1" d="m46.01,63.07l1.94,1.83c.2.19.5.22.73.07l1.7-1.08c.33-.21.37-.69.08-.95l-2.02-1.8c-.2-.18-.5-.2-.72-.05l-1.61,1.05c-.32.21-.36.67-.08.93Z"/><path class="cls-1" d="m74.89,57.93l1.94,1.83c.2.19.5.22.73.07l1.7-1.08c.33-.21.37-.69.08-.95l-2.02-1.8c-.2-.18-.5-.2-.72-.05l-1.61,1.05c-.32.21-.36.67-.08.93Z"/><path class="cls-1" d="m70.52,53.97l1.94,1.83c.2.19.5.22.73.07l1.7-1.08c.33-.21.37-.69.08-.95l-2.02-1.8c-.2-.18-.5-.2-.72-.05l-1.61,1.05c-.32.21-.36.67-.08.93Z"/><path class="cls-1" d="m66.3,50.23l1.94,1.83c.2.19.5.22.73.07l1.7-1.08c.33-.21.37-.69.08-.95l-2.02-1.8c-.2-.18-.5-.2-.72-.05l-1.61,1.05c-.32.21-.36.67-.08.93Z"/><path class="cls-1" d="m46.33,34.99s-8.29-.81-13.87-6.68c-7.96-8.36-4.45-21.28-3.24-24.1.06-.15.25-.17.37-.05.59.62,2.09,2.58,4.96,5.12,4.96,4.39,8.43,4.76,12.25,10.25,3.27,4.7,3.94,10.83-.47,15.45Z"/><path class="cls-3" d="m33.75,16.1c2.73,9.09,10.81,8.99,12.33,18.62"/><path class="cls-1" d="m45.9,34.9s-2.68-5.68-1.04-11.56c2.34-8.39,12.06-11.11,14.35-11.42.12-.02.21.1.17.22-.17.62-.86,2.35-1.4,5.19-.92,4.91.18,7.3-1.9,11.9-1.78,3.93-5.49,6.74-10.19,5.67Z"/><path class="cls-3" d="m53.53,20.38c-4.73,4.76-1.39,9.79-7.3,14.55"/></svg>